<svg id="Layer_1" data-name="Layer 1" xmlns="http://www.w3.org/2000/svg" viewBox="0 0 1839.39991 1025.28546"><defs><style>.cls-1,.cls-10,.cls-11,.cls-12,.cls-13,.cls-19,.cls-20,.cls-3,.cls-4,.cls-5{fill:none;}.cls-1,.cls-11{stroke:#ffd800;}.cls-1,.cls-10,.cls-12,.cls-13,.cls-3,.cls-4,.cls-5{stroke-linecap:round;}.cls-1,.cls-11,.cls-12,.cls-13,.cls-20,.cls-21,.cls-3,.cls-4,.cls-5{stroke-miterlimit:10;}.cls-1,.cls-10{stroke-width:1.34002px;}.cls-2{fill:#f2f2f2;}.cls-3,.cls-4,.cls-5{stroke:#ff0;}.cls-12,.cls-13,.cls-3,.cls-4,.cls-5{stroke-width:3px;}.cls-4{stroke-dasharray:0 4.03268;}.cls-5{stroke-dasharray:0 4.03268;}.cls-6{fill:#ff7d00;}.cls-7{fill:#ff293c;}.cls-8{fill:#008baa;}.cls-9{fill:#ffd800;}.cls-10{stroke:#ff293c;stroke-linejoin:round;}.cls-11{stroke-width:2.68005px;}.cls-12,.cls-13{stroke:red;}.cls-13{stroke-dasharray:0 4.02058;}.cls-14{fill:#ee4036;}.cls-15{fill:#efdee6;}.cls-16{fill:#faaf40;}.cls-17{fill:#603813;}.cls-18{fill:#1b75bb;}.cls-20,.cls-21{stroke:#231f20;}.cls-21,.cls-22{fill:#231f20;}.cls-22{font-size:8.64302px;font-family:JavaneseText, Javanese Text;}.cls-23{letter-spacing:-0.02444em;}.cls-24{fill:#f05a28;}.cls-25{fill:#754c24;}.cls-26{fill:#8a5d3b;}</style></defs><line class="cls-1" x1="535.65752" y1="676.37624" x2="540.82802" y2="683.87044"/><line class="cls-1" x1="541.98982" y1="677.53814" x2="534.49562" y2="682.70864"/><line class="cls-1" x1="911.17719" y1="726.87787" x2="930.70351" y2="756.53034"/><line class="cls-1" x1="935.09141" y1="731.47513" x2="906.78929" y2="751.93309"/><line class="cls-1" x1="877.47507" y1="994.96298" x2="897.00139" y2="1024.61545"/><line class="cls-1" x1="901.38928" y1="999.56023" x2="873.08717" y2="1020.0182"/><line class="cls-1" x1="730.41124" y1="483.3034" x2="749.93756" y2="512.95588"/><line class="cls-1" x1="754.32545" y1="487.90066" x2="726.02334" y2="508.35862"/><path class="cls-2" d="M1194.13064,260.72812a20.71736,20.71736,0,0,1-4.89848,27.96891,18.6487,18.6487,0,0,1-26.69485-5.13219,20.71723,20.71723,0,0,1,4.8981-27.96852A18.64936,18.64936,0,0,1,1194.13064,260.72812Z" transform="translate(-24.33344 -25.42553)"/><line class="cls-3" x1="136.16749" y1="183.25564" x2="136.16749" y2="183.25564"/><line class="cls-4" x1="139.87087" y1="181.65954" x2="489.83984" y2="30.82832"/><line class="cls-3" x1="491.69152" y1="30.03028" x2="491.69152" y2="30.03028"/><line class="cls-3" x1="94.98212" y1="218.84897" x2="94.98212" y2="218.84897"/><line class="cls-5" x1="98.68549" y1="217.25287" x2="448.65404" y2="66.4219"/><line class="cls-3" x1="450.50573" y1="65.62386" x2="450.50573" y2="65.62386"/><line class="cls-3" x1="53.79681" y1="254.44227" x2="53.79681" y2="254.44227"/><line class="cls-5" x1="57.50018" y1="252.84617" x2="407.46871" y2="102.0152"/><line class="cls-3" x1="409.3204" y1="101.21716" x2="409.3204" y2="101.21716"/><polygon class="cls-6" points="112.936 855.08 171.139 904.61 184.932 829.44 112.936 855.08"/><polygon class="cls-6" points="1767.404 125.889 1825.607 175.419 1839.4 100.248 1767.404 125.889"/><polygon class="cls-2" points="655.685 388.839 597.704 406.796 641.537 450.426 655.685 388.839"/><path class="cls-7" d="M1705.0277,301.16671a39.96082,39.96082,0,0,0-5.869-1.79061l-8.52076-1.84776c-.94239-.20586-1.89344-.34482-2.84453-.48Z" transform="translate(-24.33344 -25.42553)"/><path class="cls-7" d="M1677.69854,296.98314l35.69514,8.5303c-.32156-.21813-.65091-.41736-.977-.62583l-33.65138-8.04237C1678.40867,296.88045,1678.05421,296.93734,1677.69854,296.98314Z" transform="translate(-24.33344 -25.42553)"/><path class="cls-7" d="M1672.33369,298.04769l45.32754,10.83241c-.2-.17774-.39573-.36157-.59816-.53488l-43.9028-10.492C1672.8859,297.925,1672.60663,297.96936,1672.33369,298.04769Z" transform="translate(-24.33344 -25.42553)"/><path class="cls-7" d="M1668.37631,299.45008l52.4202,12.52782c-.155-.16969-.30993-.33859-.467-.50539l-51.345-12.2705C1668.78116,299.28307,1668.57868,299.36494,1668.37631,299.45008Z" transform="translate(-24.33344 -25.42553)"/><path class="cls-7" d="M1665.1065,301.01468l58.12945,13.89188c-.12193-.15982-.24179-.32176-.36548-.47945l-57.23684-13.67866C1665.45867,300.84017,1665.28031,300.91981,1665.1065,301.01468Z" transform="translate(-24.33344 -25.42553)"/><path class="cls-7" d="M1662.35094,302.70405l62.86866,15.025c-.0986-.15321-.18717-.30984-.28776-.46248l-62.11914-14.84533C1662.66026,302.52,1662.50222,302.6029,1662.35094,302.70405Z" transform="translate(-24.33344 -25.42553)"/><path class="cls-7" d="M1659.96277,304.48107l66.90751,15.9897c-.07992-.14735-.14068-.3-.2227-.44666l-66.2958-15.84363C1660.22236,304.28073,1660.09079,304.37906,1659.96277,304.48107Z" transform="translate(-24.33344 -25.42553)"/><path class="cls-7" d="M1657.83405,306.31961,1728.196,323.135c-.06844-.15027-.15168-.29678-.22224-.44665L1658.162,306.00472C1658.04951,306.1072,1657.945,306.21584,1657.83405,306.31961Z" transform="translate(-24.33344 -25.42553)"/><path class="cls-7" d="M1655.918,308.20829l73.33533,17.52609q-.08189-.21614-.16634-.43235L1656.205,307.88424C1656.10587,307.98977,1656.01556,308.10179,1655.918,308.20829Z" transform="translate(-24.33344 -25.42553)"/><path class="cls-7" d="M1654.549,309.836c-.08975.11033-.18664.21561-.275.32691l75.86437,18.13059c-.04261-.14-.07385-.2812-.118-.42078Z" transform="translate(-24.33344 -25.42553)"/><path class="cls-7" d="M1653.0418,311.82264c-.07831.11161-.15168.22585-.22859.33827l78.03029,18.64835c-.03352-.14112-.08279-.28039-.11782-.42124Z" transform="translate(-24.33344 -25.42553)"/><path class="cls-7" d="M1651.67467,313.84352c-.06868.1133-.12716.23172-.19463.34583L1731.31989,333.27c-.024-.13694-.04945-.27316-.07448-.41Z" transform="translate(-24.33344 -25.42553)"/><path class="cls-7" d="M1650.55049,315.92216c-.06086.1168-.12709.23079-.18683.34824l81.322,19.43461c-.01537-.13373-.01812-.26739-.0347-.40115Z" transform="translate(-24.33344 -25.42553)"/><path class="cls-7" d="M1649.52654,318.02514c-.05229.11783-.0967.239-.14762.35752l82.51338,19.71956c-.00715-.13364-.02617-.26748-.03454-.40115Z" transform="translate(-24.33344 -25.42553)"/><path class="cls-7" d="M1648.64372,320.1607c-.045.121-.10426.236-.14778.35736l83.43526,19.94019c.00069-.13075.00363-.26112.003-.39176Z" transform="translate(-24.33344 -25.42553)"/><path class="cls-7" d="M1647.93573,322.33858c-.03712.122-.07515.24371-.11089.3661l84.06,20.0893c.008-.129.02463-.256.03144-.38515Z" transform="translate(-24.33344 -25.42553)"/><path class="cls-7" d="M1647.30949,324.53635c-.02962.1235-.04622.25035-.07489.3745l84.41587,20.17443c.01519-.12736.02492-.25566.03906-.38336Z" transform="translate(-24.33344 -25.42553)"/><path class="cls-7" d="M1646.862,326.7764c-.0224.1259-.05385.2495-.075.37574l84.52181,20.19926c.02284-.12572.05368-.24934.07518-.37511Z" transform="translate(-24.33344 -25.42553)"/><path class="cls-7" d="M1646.52838,329.0451c-.01522.12736-.02539.25549-.03941.383l84.37238,20.16362c.02977-.12365.04594-.25082.07477-.37465Z" transform="translate(-24.33344 -25.42553)"/><path class="cls-7" d="M1646.294,331.33484c-.00787.12945-.01711.25839-.0239.38818l83.95723,20.06457c.03759-.12232.07483-.24419.111-.36672Z" transform="translate(-24.33344 -25.42553)"/><path class="cls-7" d="M1646.25514,333.67391c-.00023.13061-.00379.261-.00282.39161l83.25918,19.89769c.04521-.1207.104-.23585.14764-.35705Z" transform="translate(-24.33344 -25.42553)"/><path class="cls-7" d="M1646.30214,336.03237c.00779.1335.02571.26715.03484.40053l82.29142,19.66664c.05244-.11783.09642-.239.14781-.3572Z" transform="translate(-24.33344 -25.42553)"/><path class="cls-7" d="M1646.50912,338.429c.01536.13358.01765.26706.03453.40068l81.0524,19.37076c.06129-.11679.12676-.2308.18666-.34809Z" transform="translate(-24.33344 -25.42553)"/><path class="cls-7" d="M1646.88341,340.86562c.02427.137.04884.27329.07447.41l79.50522,19.00068c.06943-.11389.13563-.229.20352-.34338Z" transform="translate(-24.33344 -25.42553)"/><path class="cls-7" d="M1647.369,343.32851c.03381.14144.08264.28116.11814.42234l77.60839,18.54692c.07877-.11143.15151-.22647.22919-.33887Z" transform="translate(-24.33344 -25.42553)"/><path class="cls-7" d="M1648.07407,345.84441c.04306.1397.07325.28118.118.42062l75.38647,18.01673c.09005-.11016.18647-.21593.275-.32691Z" transform="translate(-24.33344 -25.42553)"/><path class="cls-7" d="M1648.96963,348.40573c.05488.14457.11008.289.16679.43315l72.77445,17.392c.1008-.10657.19963-.214.29886-.32152Z" transform="translate(-24.33344 -25.42553)"/><path class="cls-7" d="M1650.03982,351.00967c.06844.15.1509.296.22145.44538l69.69279,16.65548c.11249-.102.21611-.211.3272-.31428Z" transform="translate(-24.33344 -25.42553)"/><path class="cls-7" d="M1651.36472,353.67219c.08148.14958.15286.30149.23662.45035l66.14992,15.80889c.12972-.09994.26072-.19874.38885-.30044Z" transform="translate(-24.33344 -25.42553)"/><path class="cls-7" d="M1653.03026,356.41891c.09861.15243.18578.30871.28664.46042l61.95829,14.80733c.15213-.09786.30924-.18173.46008-.28211Z" transform="translate(-24.33344 -25.42553)"/><path class="cls-7" d="M1655.02979,359.24356c.12253.15969.24165.32238.366.47978l57.03843,13.63143c.18037-.09373.368-.1647.547-.26174Z" transform="translate(-24.33344 -25.42553)"/><path class="cls-7" d="M1657.49209,362.17929c.15486.16844.30884.33794.46575.50348l51.10109,12.21226c.21019-.08273.42254-.154.63169-.241Z" transform="translate(-24.33344 -25.42553)"/><path class="cls-7" d="M1660.65441,365.282c.20089.177.39577.363.59924.53552l43.59395,10.41858c.27528-.07033.55445-.11783.82819-.19474Z" transform="translate(-24.33344 -25.42553)"/><path class="cls-7" d="M1664.96361,368.6589c.34011.22864.69518.42383,1.04058.64128l33.18709,7.93125c.357-.033.71022-.09414,1.06627-.1376Z" transform="translate(-24.33344 -25.42553)"/><path class="cls-7" d="M1673.80535,373.119a39.86273,39.86273,0,0,0,5.22176,1.55187l8.52091,1.84777c.54447.11884,1.09535.18189,1.64292.27719Z" transform="translate(-24.33344 -25.42553)"/><path class="cls-7" d="M1683.0522,296.64863c-.491-.00806-.98036.03012-1.471.04136l28.55058,6.82288c-.47979-.2646-.97064-.49688-1.45833-.741Z" transform="translate(-24.33344 -25.42553)"/><path class="cls-7" d="M1675.735,297.24762c-.27782.05128-.54951.13664-.8261.19434l40.74265,9.737c-.25753-.20157-.52483-.38492-.786-.57991Z" transform="translate(-24.33344 -25.42553)"/><path class="cls-7" d="M1671.0615,298.47729c-.22416.07359-.44593.15549-.669.23362l48.95416,11.69927c-.18462-.18271-.37882-.35-.566-.52861Z" transform="translate(-24.33344 -25.42553)"/><path class="cls-7" d="M1667.34749,299.93713c-.18432.08429-.36713.17281-.55027.26056l55.30054,13.21576c-.1409-.16895-.28818-.32845-.431-.495Z" transform="translate(-24.33344 -25.42553)"/><path class="cls-7" d="M1664.2456,301.54244c-.15538.0906-.30717.18987-.46157.28315l60.50266,14.45946c-.117-.16682-.248-.31665-.3669-.4812Z" transform="translate(-24.33344 -25.42553)"/><path class="cls-7" d="M1661.55907,303.24789c-.13471.09575-.256.20356-.389.30075l64.87292,15.5033c-.09244-.15519-.19335-.30769-.28792-.46232Z" transform="translate(-24.33344 -25.42553)"/><path class="cls-7" d="M1659.2381,305.04079c-.12428.10446-.2637.19524-.38639.30114l68.65489,16.40722c-.07479-.14875-.14626-.29849-.2224-.44681Z" transform="translate(-24.33344 -25.42553)"/><path class="cls-7" d="M1657.22314,306.90658c-.108.10572-.2214.2074-.32751.31443l71.84005,17.16878c-.05973-.14331-.10495-.28946-.1662-.43251Z" transform="translate(-24.33344 -25.42553)"/><path class="cls-7" d="M1655.40409,308.8192c-.09392.1074-.18245.21869-.27514.32706l74.6016,17.8284c-.04975-.145-.11522-.28713-.16649-.43221Z" transform="translate(-24.33344 -25.42553)"/><path class="cls-7" d="M1653.76062,310.77323c-.08308.10959-.15456.22607-.2364.33648l76.95263,18.39064c-.03839-.14049-.07824-.28071-.1183-.421Z" transform="translate(-24.33344 -25.42553)"/><path class="cls-7" d="M1652.38584,312.79248c-.07446.11359-.15555.22355-.22861.338l78.93085,18.863c-.02852-.13646-.0449-.27364-.07463-.41Z" transform="translate(-24.33344 -25.42553)"/><path class="cls-7" d="M1651.13105,314.83978c-.065.115-.1232.23293-.1868.3484l80.58932,19.25952c-.01973-.13728-.05324-.27373-.07466-.41075Z" transform="translate(-24.33344 -25.42553)"/><path class="cls-7" d="M1650.01481,316.92068c-.05669.1177-.12109.23206-.17668.35057l81.94668,19.584c-.01128-.13376-.02179-.26749-.03469-.40115Z" transform="translate(-24.33344 -25.42553)"/><path class="cls-7" d="M1649.10306,319.04946c-.04874.11934-.10026.23751-.14777.35736l82.98536,19.83246c-.00346-.131.00746-.2607.00279-.39192Z" transform="translate(-24.33344 -25.42553)"/><path class="cls-7" d="M1648.28011,321.1999c-.04093.12067-.07131.24492-.11088.3661l83.75333,20.01578c.00419-.13034,0-.26124.003-.39177Z" transform="translate(-24.33344 -25.42553)"/><path class="cls-7" d="M1647.6179,323.389c-.03358.12307-.07823.24223-.11057.3658l84.26507,20.13844c.01156-.12778.02861-.25492.03894-.38321Z" transform="translate(-24.33344 -25.42553)"/><path class="cls-7" d="M1647.09484,325.611c-.02624.125-.04988.25024-.075.37559l84.518,20.19836c.019-.12693.02157-.25669.03939-.38366Z" transform="translate(-24.33344 -25.42553)"/><path class="cls-7" d="M1646.65018,327.85317c-.01889.12663-.02158.25607-.03925.38305l84.48321,20.19015c.0261-.12469.05005-.24976.07507-.3748Z" transform="translate(-24.33344 -25.42553)"/><path class="cls-7" d="M1646.41609,330.14293c-.0117.12839-.029.25569-.03967.38443l84.19527,20.1214c.03389-.12337.07867-.243.111-.36672Z" transform="translate(-24.33344 -25.42553)"/><path class="cls-7" d="M1646.26458,332.45494c-.00418.13049-.00015.26123-.003.39176l83.6483,19.99067c.04064-.12084.07116-.24478.11058-.366Z" transform="translate(-24.33344 -25.42553)"/><path class="cls-7" d="M1646.24668,334.7979c.00343.13088-.00759.26085-.00312.39176l82.84419,19.79864c.04845-.1192.10027-.23736.14778-.35721Z" transform="translate(-24.33344 -25.42553)"/><path class="cls-7" d="M1646.4016,337.182c.01111.13375.02176.26718.03439.401l81.74065,19.535c.057-.118.12-.23225.17563-.35076Z" transform="translate(-24.33344 -25.42553)"/><path class="cls-7" d="M1646.65162,339.58926c.01985.137.05322.273.0743.40981l80.33494,19.19909c.06467-.11466.12319-.23246.18634-.34764Z" transform="translate(-24.33344 -25.42553)"/><path class="cls-7" d="M1647.09706,342.04254c.02839.13707.04494.27488.07484.41185l78.63464,18.79233c.07474-.114.15583-.22416.22919-.33887Z" transform="translate(-24.33344 -25.42553)"/><path class="cls-7" d="M1647.7071,344.53564c.03836.14034.07841.28041.118.42063l76.60864,18.30867c.08294-.10944.15365-.22609.235-.33636Z" transform="translate(-24.33344 -25.42553)"/><path class="cls-7" d="M1648.45215,347.061c.04961.14565.11527.28806.16682.43315l74.17083,17.72559c.09394-.10739.18245-.21869.27514-.32721Z" transform="translate(-24.33344 -25.42553)"/><path class="cls-7" d="M1649.44736,349.64711c.05957.14315.1048.28929.1662.432l71.35844,17.05371c.10781-.106.22108-.20741.32719-.31428Z" transform="translate(-24.33344 -25.42553)"/><path class="cls-7" d="M1650.67488,352.2863c.07449.14905.14625.29849.22255.44681l68.061,16.26573c.124-.1043.26244-.19573.38473-.30134Z" transform="translate(-24.33344 -25.42553)"/><path class="cls-7" d="M1652.13778,354.98458c.09182.15486.19283.30642.28662.46041l64.21377,15.34615c.13412-.09513.255-.20249.38737-.29924Z" transform="translate(-24.33344 -25.42553)"/><path class="cls-7" d="M1653.89144,357.75045c.11665.16635.24769.31556.3658.47993l59.69623,14.26674c.15524-.09045.30688-.18941.461-.2827Z" transform="translate(-24.33344 -25.42553)"/><path class="cls-7" d="M1656.07972,360.62048c.14013.16861.28593.329.42825.49457l54.34624,12.98808c.18415-.08444.367-.173.55009-.26056Z" transform="translate(-24.33344 -25.42553)"/><path class="cls-7" d="M1658.829,363.62463c.18322.18158.37561.34867.56128.5266l47.75294,11.41231c.22356-.07346.44516-.1549.66764-.233Z" transform="translate(-24.33344 -25.42553)"/><path class="cls-7" d="M1662.51414,366.85263c.25785.202.52579.38542.78756.58058l39.17081,9.36148c.27829-.05142.55087-.13692.82806-.1949Z" transform="translate(-24.33344 -25.42553)"/><path class="cls-7" d="M1668.02654,370.51674c.4775.26407.96548.49735,1.45088.741l25.69047,6.13961c.4927.00795.98422-.02969,1.47677-.04118Z" transform="translate(-24.33344 -25.42553)"/><ellipse class="cls-7" cx="1684.77583" cy="336.08729" rx="37.73718" ry="40.23958" transform="translate(82.83629 990.7965) rotate(-34.6033)"/><path class="cls-8" d="M1759.45857,759.33024c3.83737,4.5702,2.43932,10.8313-3.12257,13.9844-5.56165,3.1531-13.181,2.00427-17.01815-2.56593s-2.43908-10.83129,3.12257-13.98439C1748.00211,753.611,1755.62144,754.75985,1759.45857,759.33024Z" transform="translate(-24.33344 -25.42553)"/><path class="cls-8" d="M1624.65006,1016.692c3.83737,4.57019,2.43932,10.83129-3.12257,13.98439-5.56165,3.1531-13.181,2.00427-17.01815-2.56592s-2.43908-10.8313,3.12257-13.9844C1613.1936,1010.97272,1620.81293,1012.12155,1624.65006,1016.692Z" transform="translate(-24.33344 -25.42553)"/><circle class="cls-9" cx="448.48936" cy="650.44681" r="10.72833" transform="translate(-295.84667 299.72136) rotate(-31.09973)"/><path class="cls-9" d="M989.58651,494.02682a11.26721,11.26721,0,0,1-2.66393,15.211,10.14238,10.14238,0,0,1-14.51832-2.791,11.2672,11.2672,0,0,1,2.66393-15.211A10.14238,10.14238,0,0,1,989.58651,494.02682Z" transform="translate(-24.33344 -25.42553)"/><path class="cls-8" d="M923.8605,151.87966a20.71686,20.71686,0,0,1-4.89848,27.96851,18.64893,18.64893,0,0,1-26.69484-5.1318,20.71717,20.71717,0,0,1,4.8981-27.96852A18.64873,18.64873,0,0,1,923.8605,151.87966Z" transform="translate(-24.33344 -25.42553)"/><line class="cls-10" x1="1387.88995" y1="571.40426" x2="1416.52869" y2="615.67237"/><line class="cls-10" x1="1422.96443" y1="578.26758" x2="1381.45421" y2="608.80904"/><line class="cls-10" x1="291.03888" y1="611.23404" x2="319.67762" y2="655.50215"/><line class="cls-10" x1="326.11337" y1="618.09737" x2="284.60314" y2="648.63883"/><line class="cls-10" x1="1197.9325" y1="366.12766" x2="1226.57124" y2="410.39577"/><line class="cls-10" x1="1233.00698" y1="372.99098" x2="1191.49676" y2="403.53245"/><line class="cls-10" x1="902.27293" y1="16.85106" x2="930.91167" y2="61.11917"/><line class="cls-10" x1="937.34741" y1="23.71439" x2="895.83718" y2="54.25585"/><path class="cls-7" d="M166.873,546.56117l47.5597-84.84331c1.15448-2.05956,2.93124-3.2577,3.96867-2.67622h0c1.0373.58162.94241,2.72245-.21207,4.782L170.62956,548.667c-1.15447,2.05956-2.93124,3.25769-3.96853,2.6761l-.00013.00011C165.6236,550.76158,165.71849,548.62073,166.873,546.56117Z" transform="translate(-24.33344 -25.42553)"/><path class="cls-8" d="M191.338,539.29643l47.55981-84.84357c1.15435-2.05943,2.93126-3.25756,3.96855-2.676h0c1.03741.58134.94241,2.72244-.212,4.78175l-47.55981,84.84357c-1.15437,2.0593-2.93126,3.25755-3.96855,2.676h0C190.08865,543.49669,190.18366,541.35573,191.338,539.29643Z" transform="translate(-24.33344 -25.42553)"/><path class="cls-9" d="M179.10556,542.92874l47.55969-84.84344c1.15448-2.05944,2.93125-3.25757,3.96868-2.67609h0c1.03729.5816.9424,2.72245-.21209,4.78187l-47.55968,84.84345c-1.15448,2.05956-2.93126,3.25755-3.96867,2.67621l0-.00014C177.8562,547.12917,177.95107,544.98816,179.10556,542.92874Z" transform="translate(-24.33344 -25.42553)"/><path class="cls-7" d="M805.91015,999.0466l-53.02263-76.853c-1.28712-1.86558-1.77378-3.76193-1.087-4.23579h0c.68682-.47371,2.28684.65442,3.574,2.52l53.02263,76.853c1.28712,1.86557,1.77378,3.76192,1.087,4.23564l0,.00015C808.79731,1002.04031,807.19727,1000.91217,805.91015,999.0466Z" transform="translate(-24.33344 -25.42553)"/><path class="cls-8" d="M806.20663,977.49985l-53.02279-76.85319c-1.28705-1.86541-1.77368-3.76187-1.08687-4.23558h0c.68664-.47392,2.28684.65443,3.5738,2.51979l53.02279,76.85319c1.287,1.86537,1.77368,3.76187,1.08689,4.23559h0C809.09368,980.49351,807.49359,979.36522,806.20663,977.49985Z" transform="translate(-24.33344 -25.42553)"/><path class="cls-9" d="M806.05836,988.27315l-53.02272-76.853c-1.287-1.86552-1.77369-3.76188-1.08694-4.23574h0c.6868-.47371,2.28684.65442,3.57385,2.51994l53.02274,76.853c1.28713,1.86557,1.77368,3.76187,1.087,4.23579l-.00011-.00006C808.94554,991.26687,807.34538,990.13867,806.05836,988.27315Z" transform="translate(-24.33344 -25.42553)"/><path class="cls-11" d="M1155.97134,937.246a18.2133,18.2133,0,0,1-4.33018,24.64247,16.51945,16.51945,0,0,1-23.59922-4.52161,18.21347,18.21347,0,0,1,4.33018-24.64247A16.51959,16.51959,0,0,1,1155.97134,937.246Z" transform="translate(-24.33344 -25.42553)"/><path class="cls-11" d="M1233.77323,958.25869a18.21349,18.21349,0,0,1-4.33019,24.64248,16.5194,16.5194,0,0,1-23.59918-4.52161,18.21327,18.21327,0,0,1,4.33018-24.64248A16.51957,16.51957,0,0,1,1233.77323,958.25869Z" transform="translate(-24.33344 -25.42553)"/><polygon class="cls-6" points="1107.66 970.602 1098.984 965.351 1104.013 956.291 1112.689 961.543 1107.66 970.602"/><polygon class="cls-6" points="1394.825 186.628 1375.66 199.851 1377.528 223.061 1398.562 233.047 1417.728 219.824 1415.86 196.615 1394.825 186.628"/><polygon class="cls-6" points="43.677 329.096 24.511 342.319 26.379 365.529 47.414 375.516 66.58 362.293 64.711 339.083 43.677 329.096"/><polygon class="cls-6" points="19.166 764.16 0 777.383 1.868 800.593 22.903 810.579 42.069 797.356 40.2 774.147 19.166 764.16"/><polygon class="cls-6" points="941.379 583.394 922.213 596.617 924.081 619.827 945.116 629.813 964.282 616.59 962.413 593.381 941.379 583.394"/><ellipse class="cls-11" cx="1748.24102" cy="653.10638" rx="21.89347" ry="17.99071"/><ellipse class="cls-11" cx="758.624" cy="233.3617" rx="21.89347" ry="17.99071"/><ellipse class="cls-11" cx="1089.51762" cy="414.12766" rx="21.89347" ry="17.99071"/><line class="cls-10" x1="1721.21583" y1="691.87279" x2="1733.66375" y2="706.69897"/><line class="cls-10" x1="1736.46107" y1="694.17144" x2="1718.41851" y2="704.40032"/><line class="cls-12" x1="1457.29436" y1="862.80628" x2="1457.29436" y2="862.80628"/><line class="cls-13" x1="1460.98907" y1="864.39197" x2="1758.41131" y2="992.03779"/><line class="cls-12" x1="1760.25872" y1="992.83057" x2="1760.25872" y2="992.83057"/><line class="cls-12" x1="1413.23308" y1="853.38233" x2="1413.23308" y2="853.38233"/><line class="cls-13" x1="1416.92779" y1="854.96802" x2="1714.35003" y2="982.61384"/><line class="cls-12" x1="1716.19744" y1="983.40662" x2="1716.19744" y2="983.40662"/><line class="cls-12" x1="1369.17181" y1="843.95844" x2="1369.17181" y2="843.95844"/><line class="cls-13" x1="1372.86651" y1="845.54407" x2="1670.28887" y2="973.18989"/><line class="cls-12" x1="1672.13616" y1="973.98273" x2="1672.13616" y2="973.98273"/><polygon class="cls-8" points="1271.86 41.732 1314.824 52.068 1302.293 9.692 1271.86 41.732"/><polygon class="cls-8" points="1395.945 1014.498 1438.909 1024.834 1426.379 982.458 1395.945 1014.498"/><path class="cls-14" d="M1253.88874,646.77283c-6.744,8.22847-24.08574,6.104-38.76385-4.73274a48.39848,48.39848,0,0,1-13.09129-14.11748,25.22352,25.22352,0,0,0,3.11708-12.262,15.75545,15.75545,0,0,0,6.09217-4.14123c6.09234,1.42527,14.11135.32284,22.18727-3.22672a59.022,59.022,0,0,1,6.1489,3.95282C1254.25713,623.08237,1260.66113,638.54437,1253.88874,646.77283Z" transform="translate(-24.33344 -25.42553)"/><path class="cls-15" d="M1202.0336,627.92261a47.80873,47.80873,0,0,1-12.15616,14.76282c-13.94151,11.67052-31.14141,14.78974-38.39547,6.9647-7.25405-7.82521-1.87028-23.6368,12.07107-35.28024a57.66909,57.66909,0,0,1,5.469-4.03356,44.9055,44.9055,0,0,0,18.22013,2.12429,16.90707,16.90707,0,0,0,10.93772,4.35623A25.90414,25.90414,0,0,0,1202.0336,627.92261Z" transform="translate(-24.33344 -25.42553)"/><path class="cls-16" d="M1182.62339,602.21537a10.63326,10.63326,0,0,0,.17,1.90911,47.55612,47.55612,0,0,0-13.77133,6.21185,54.02782,54.02782,0,0,1-6.68747-2.55462c-16.7466-7.61-26.49424-21.40484-21.73379-30.8165,4.73209-9.38473,22.1589-10.83675,38.93386-3.22688.56676.269,1.13352.51092,1.67191.80668a36.30909,36.30909,0,0,0,6.97059,16.64518A14.00477,14.00477,0,0,0,1182.62339,602.21537Z" transform="translate(-24.33344 -25.42553)"/><path class="cls-17" d="M1241.78932,603.77506a55.07572,55.07572,0,0,1-8.3592,4.51757,43.39431,43.39431,0,0,0-18.532-5.72767,1.45612,1.45612,0,0,0,.02837-.34959,13.83575,13.83575,0,0,0-3.82532-9.43857c4.4488-4.57141,7.67917-11.88552,8.75578-20.49049,15.13159-9.62682,32.16165-10.62176,38.31055-2.17812C1264.42989,578.68624,1257.09074,593.77173,1241.78932,603.77506Z" transform="translate(-24.33344 -25.42553)"/><path class="cls-18" d="M1220.25373,565.9402a51.284,51.284,0,0,1-.39675,6.34611c-.22656.13442-.4533.29575-.68.43017-6.88567,4.54449-12.18451,10.08391-15.30142,15.62333a16.68278,16.68278,0,0,0-5.10048-.77976,5.45111,5.45111,0,0,0-.93514.05383,46.81118,46.81118,0,0,0-16.63332-13.06887,47.06891,47.06891,0,0,1-.76513-8.60481c0-17.64011,8.926-31.91892,19.92041-31.91892C1211.32794,534.02128,1220.25373,548.30009,1220.25373,565.9402Z" transform="translate(-24.33344 -25.42553)"/><path class="cls-19" d="M1214.92652,602.21537a1.45612,1.45612,0,0,1-.02837.34959,13.71018,13.71018,0,0,1-3.6553,8.95439,15.75545,15.75545,0,0,1-6.09217,4.14123,17.72736,17.72736,0,0,1-6.37564,1.18319,4.40393,4.40393,0,0,1-.59512-.02692,16.90707,16.90707,0,0,1-10.93772-4.35623,13.97885,13.97885,0,0,1-4.4488-8.33614,10.63326,10.63326,0,0,1-.17-1.90911,14.00477,14.00477,0,0,1,5.55378-11.02518,16.564,16.564,0,0,1,9.66273-3.57631,5.45111,5.45111,0,0,1,.93514-.05383,16.68278,16.68278,0,0,1,5.10048.77976,15.74586,15.74586,0,0,1,7.22568,4.437A13.83575,13.83575,0,0,1,1214.92652,602.21537Z" transform="translate(-24.33344 -25.42553)"/><path class="cls-14" d="M152.44194,138.17709c-6.744,8.22846-24.08574,6.104-38.76386-4.73275a48.39846,48.39846,0,0,1-13.09129-14.11747,25.22355,25.22355,0,0,0,3.11708-12.262,15.75566,15.75566,0,0,0,6.09217-4.14123c6.09235,1.42527,14.11136.32283,22.18727-3.22672a59.02349,59.02349,0,0,1,6.1489,3.95281C152.81032,114.48662,159.21432,129.94862,152.44194,138.17709Z" transform="translate(-24.33344 -25.42553)"/><path class="cls-15" d="M100.58679,119.32687a47.80894,47.80894,0,0,1-12.15615,14.76282c-13.94152,11.67052-31.14142,14.78973-38.39547,6.96469-7.25406-7.82521-1.87029-23.63679,12.07106-35.28023a57.66863,57.66863,0,0,1,5.469-4.03356,44.90548,44.90548,0,0,0,18.22013,2.12428,16.9071,16.9071,0,0,0,10.93772,4.35624A25.90419,25.90419,0,0,0,100.58679,119.32687Z" transform="translate(-24.33344 -25.42553)"/><path class="cls-16" d="M81.17658,93.61962a10.63337,10.63337,0,0,0,.17,1.90912,47.55585,47.55585,0,0,0-13.77133,6.21185A54.0301,54.0301,0,0,1,60.88779,99.186c-16.7466-7.61-26.49424-21.40484-21.73379-30.81649,4.73209-9.38473,22.1589-10.83676,38.93387-3.22688.56675.269,1.13351.51092,1.67191.80668a36.30907,36.30907,0,0,0,6.97058,16.64518A14.00475,14.00475,0,0,0,81.17658,93.61962Z" transform="translate(-24.33344 -25.42553)"/><path class="cls-17" d="M140.34251,95.17931a55.0758,55.0758,0,0,1-8.3592,4.51758,43.39434,43.39434,0,0,0-18.532-5.72768,1.456,1.456,0,0,0,.02837-.34959,13.83574,13.83574,0,0,0-3.82531-9.43856c4.44879-4.57141,7.67916-11.88553,8.75577-20.4905,15.13159-9.62682,32.16165-10.62175,38.31055-2.17812C162.98308,70.0905,155.64394,85.176,140.34251,95.17931Z" transform="translate(-24.33344 -25.42553)"/><path class="cls-18" d="M118.80692,57.34446a51.28189,51.28189,0,0,1-.39675,6.3461c-.22656.13442-.4533.29576-.68.43018-6.88566,4.54449-12.18451,10.08391-15.30142,15.62333a16.68247,16.68247,0,0,0-5.10048-.77976,5.45111,5.45111,0,0,0-.93514.05383A46.811,46.811,0,0,0,79.75978,65.94927a47.069,47.069,0,0,1-.76514-8.60481c0-17.64012,8.926-31.91893,19.92041-31.91893C109.88113,25.42553,118.80692,39.70434,118.80692,57.34446Z" transform="translate(-24.33344 -25.42553)"/><path class="cls-19" d="M113.47971,93.61962a1.456,1.456,0,0,1-.02837.34959,13.71015,13.71015,0,0,1-3.6553,8.9544,15.75566,15.75566,0,0,1-6.09217,4.14123,17.72757,17.72757,0,0,1-6.37564,1.18318,4.40556,4.40556,0,0,1-.59512-.02691,16.9071,16.9071,0,0,1-10.93772-4.35624,13.97883,13.97883,0,0,1-4.4488-8.33613,10.63337,10.63337,0,0,1-.17-1.90912,14.00475,14.00475,0,0,1,5.55378-11.02517,16.564,16.564,0,0,1,9.66273-3.57631,5.45111,5.45111,0,0,1,.93514-.05383,16.68247,16.68247,0,0,1,5.10048.77976,15.74594,15.74594,0,0,1,7.22569,4.437A13.83574,13.83574,0,0,1,113.47971,93.61962Z" transform="translate(-24.33344 -25.42553)"/><path class="cls-19" d="M746.44383,652.01939a6.00053,6.00053,0,1,1-6-6.08A6.04361,6.04361,0,0,1,746.44383,652.01939Z" transform="translate(-24.33344 -25.42553)"/><path class="cls-18" d="M762.44383,645.42936a5.57373,5.57373,0,1,1-5.57-5.37A5.4658,5.4658,0,0,1,762.44383,645.42936Z" transform="translate(-24.33344 -25.42553)"/><path class="cls-19" d="M762.96385,658.5294a4.81026,4.81026,0,1,1-4.81-4.76A4.79069,4.79069,0,0,1,762.96385,658.5294Z" transform="translate(-24.33344 -25.42553)"/><path class="cls-18" d="M757.08385,666.23936c-6.48,0-11.74,4.91-11.74,10.97,0,6.07,5.26,10.98,11.74,10.98,6.49,0,11.75-4.91,11.75-10.98C768.83385,671.1494,763.57384,666.23936,757.08385,666.23936Zm3.66,14.97c-1.83,0-3.32-2.11-3.32-4.72,0-2.61,1.49-4.72,3.32-4.72,1.84,0,3.32,2.11,3.32,4.72C764.06383,679.09941,762.58385,681.20939,760.74382,681.20939Z" transform="translate(-24.33344 -25.42553)"/><ellipse class="cls-19" cx="736.41038" cy="651.06385" rx="3.32001" ry="4.72002"/><path class="cls-18" d="M787.72386,668.57939a12.63572,12.63572,0,1,0,12.77,12.63A12.69066,12.69066,0,0,0,787.72386,668.57939Zm3.83,20.46c-1.97,0-3.56995-2.87006-3.56995-6.42s1.6-6.43,3.56995-6.43c1.98,0,3.58,2.88,3.58,6.43S793.53386,689.03941,791.55382,689.03941Z" transform="translate(-24.33344 -25.42553)"/><path class="cls-19" d="M795.13384,682.61937c0,3.55-1.6,6.42-3.58,6.42-1.97,0-3.56995-2.87006-3.56995-6.42s1.6-6.43,3.56995-6.43C793.53386,676.18937,795.13384,679.06938,795.13384,682.61937Z" transform="translate(-24.33344 -25.42553)"/><ellipse class="cls-19" cx="736.41038" cy="651.06385" rx="3.32001" ry="4.72002"/><path class="cls-19" d="M795.13384,682.61937c0,3.55-1.6,6.42-3.58,6.42-1.97,0-3.56995-2.87006-3.56995-6.42s1.6-6.43,3.56995-6.43C793.53386,676.18937,795.13384,679.06938,795.13384,682.61937Z" transform="translate(-24.33344 -25.42553)"/><path class="cls-18" d="M789.91387,647.84941a6.20605,6.20605,0,1,1-6.19-5.76A5.988,5.988,0,0,1,789.91387,647.84941Z" transform="translate(-24.33344 -25.42553)"/><line class="cls-20" x1="965.04243" y1="854.45247" x2="965.04243" y2="854.45067"/><line class="cls-20" x1="951.28878" y1="858.47327" x2="951.2064" y2="858.38144"/><polygon class="cls-21" points="994.106 878.05 963.326 890.03 956.296 885.87 947.076 880.4 944.806 879.06 961.736 858.47 965.046 854.45 951.206 858.38 939.746 845.6 979.696 845.6 973.916 858.47 967.986 871.66 964.796 878.75 976.546 878.47 980.746 868.04 985.396 878.26 994.106 878.05"/><line class="cls-20" x1="964.7953" y1="878.75015" x2="964.77592" y2="878.79336"/><line class="cls-20" x1="981.59043" y1="850.34523" x2="981.55005" y2="850.45687"/><polygon class="cls-21" points="985.156 864.04 976.646 864.04 979.886 855.08 979.886 855.07 981.546 850.46 983.686 858.53 985.156 864.04"/><line class="cls-20" x1="980.74405" y1="868.03821" x2="980.74405" y2="868.03641"/><line class="cls-20" x1="980.74405" y1="868.03821" x2="980.74405" y2="868.03641"/><line class="cls-20" x1="965.04243" y1="854.45247" x2="965.04243" y2="854.45067"/><text class="cls-22" transform="translate(940.24868 901.01288) scale(0.89703 1)">Z MAN OF A<tspan class="cls-23" x="50.60047" y="0">R</tspan><tspan x="56.19619" y="0">T</tspan></text><line class="cls-20" x1="104.10626" y1="641.5163" x2="104.10626" y2="641.5145"/><line class="cls-20" x1="90.35261" y1="645.5371" x2="90.27023" y2="645.44527"/><polygon class="cls-21" points="133.17 665.113 102.39 677.093 95.36 672.933 86.14 667.463 83.869 666.123 100.8 645.533 104.11 641.513 90.27 645.443 78.809 632.663 118.759 632.663 112.98 645.533 107.05 658.723 103.86 665.813 115.61 665.533 119.809 655.103 124.46 665.323 133.17 665.113"/><line class="cls-20" x1="103.85913" y1="665.81398" x2="103.83975" y2="665.85719"/><line class="cls-20" x1="120.65426" y1="637.40906" x2="120.61388" y2="637.5207"/><polygon class="cls-21" points="124.22 651.103 115.71 651.103 118.949 642.143 118.949 642.133 120.61 637.523 122.749 645.593 124.22 651.103"/><line class="cls-20" x1="119.80788" y1="655.10204" x2="119.80788" y2="655.10024"/><line class="cls-20" x1="119.80788" y1="655.10204" x2="119.80788" y2="655.10024"/><line class="cls-20" x1="104.10626" y1="641.5163" x2="104.10626" y2="641.5145"/><text class="cls-22" transform="translate(79.31249 688.07671) scale(0.89703 1)">Z MAN OF A<tspan class="cls-23" x="50.60047" y="0">R</tspan><tspan x="56.19619" y="0">T</tspan></text><line class="cls-20" x1="1781.69903" y1="462.80804" x2="1781.69903" y2="462.80624"/><line class="cls-20" x1="1767.94537" y1="466.82884" x2="1767.863" y2="466.73701"/><polygon class="cls-21" points="1810.762 486.405 1779.982 498.385 1772.952 494.225 1763.732 488.755 1761.462 487.415 1778.392 466.825 1781.702 462.805 1767.862 466.735 1756.402 453.955 1796.352 453.955 1790.572 466.825 1784.642 480.015 1781.452 487.105 1793.202 486.825 1797.402 476.395 1802.052 486.615 1810.762 486.405"/><line class="cls-20" x1="1781.4519" y1="487.10572" x2="1781.43251" y2="487.14894"/><line class="cls-20" x1="1798.24702" y1="458.70081" x2="1798.20664" y2="458.81244"/><polygon class="cls-21" points="1801.812 472.395 1793.302 472.395 1796.542 463.435 1796.542 463.425 1798.202 458.815 1800.342 466.885 1801.812 472.395"/><line class="cls-20" x1="1797.40064" y1="476.39378" x2="1797.40064" y2="476.39198"/><line class="cls-20" x1="1797.40064" y1="476.39378" x2="1797.40064" y2="476.39198"/><line class="cls-20" x1="1781.69903" y1="462.80804" x2="1781.69903" y2="462.80624"/><text class="cls-22" transform="translate(1756.90533 509.36846) scale(0.89703 1)">Z MAN OF A<tspan class="cls-23" x="50.60047" y="0">R</tspan><tspan x="56.19619" y="0">T</tspan></text><line class="cls-19" x1="1534.94422" y1="775.14894" x2="1534.79422" y2="775.14894"/><line class="cls-19" x1="1534.94422" y1="778.63894" x2="1534.94422" y2="775.14894"/><line class="cls-19" x1="1534.94422" y1="778.63894" x2="1534.79422" y2="778.63894"/><polygon class="cls-24" points="1534.794 778.639 1534.794 802.389 1511.294 778.639 1534.794 778.639"/><polygon class="cls-15" points="1534.794 751.959 1534.794 775.149 1511.614 775.149 1534.794 751.959"/><polygon class="cls-16" points="1556.444 775.149 1534.944 775.149 1534.944 751.809 1535.174 751.579 1556.444 775.149"/><polygon class="cls-17" points="1556.614 778.639 1534.944 802.409 1534.944 778.639 1556.614 778.639"/><line class="cls-19" x1="1534.79422" y1="778.63894" x2="1534.79422" y2="775.14894"/><path class="cls-19" d="M980.4,341.41c-5.6,0-10.15,4.23-10.15,9.45,0,5.21,4.55,9.44,10.15,9.44,5.61,0,10.15-4.23,10.15-9.44C990.55,345.64,986.01,341.41,980.4,341.41Zm.16,14.75a5.20518,5.20518,0,1,1,5.25-5.21A5.22811,5.22811,0,0,1,980.56,356.16Z" transform="translate(-24.33344 -25.42553)"/><path class="cls-25" d="M985.81,350.95a5.25024,5.25024,0,1,1-5.25-5.2A5.22811,5.22811,0,0,1,985.81,350.95Z" transform="translate(-24.33344 -25.42553)"/><path class="cls-19" d="M1019.59,306.94c-5.6,0-10.15,4.23-10.15,9.45,0,5.21,4.55,9.44,10.15,9.44,5.60992,0,10.15-4.23,10.15-9.44C1029.74,311.17,1025.2,306.94,1019.59,306.94Zm.16,14.75a5.20025,5.20025,0,1,1,5.25-5.2A5.22606,5.22606,0,0,1,1019.75,321.69Z" transform="translate(-24.33344 -25.42553)"/><ellipse class="cls-25" cx="995.41656" cy="291.06446" rx="5.25" ry="5.20001"/><path class="cls-19" d="M1020.74,341.28c-5.6,0-10.15,4.23-10.15,9.45,0,5.22,4.55,9.44,10.15,9.44,5.61,0,10.15-4.22,10.15-9.44C1030.89,345.51,1026.35,341.28,1020.74,341.28Zm.16,14.75a5.20022,5.20022,0,1,1,5.25-5.2A5.226,5.226,0,0,1,1020.9,356.03Z" transform="translate(-24.33344 -25.42553)"/><ellipse class="cls-25" cx="996.56658" cy="325.40444" rx="5.25" ry="5.2"/><path class="cls-19" d="M978.61,306.94c-5.6,0-10.14,4.23-10.14,9.45,0,5.21,4.54,9.44,10.14,9.44,5.61,0,10.15-4.23,10.15-9.44C988.76,311.17,984.22,306.94,978.61,306.94Zm.16,14.75a5.20025,5.20025,0,1,1,5.25-5.2A5.22606,5.22606,0,0,1,978.77,321.69Z" transform="translate(-24.33344 -25.42553)"/><ellipse class="cls-25" cx="954.43658" cy="291.06446" rx="5.25" ry="5.20001"/><path class="cls-19" d="M1000.7,323.79c-5.61,0-10.15,4.23-10.15,9.45,0,5.22,4.54,9.45,10.15,9.45,5.6,0,10.15-4.23,10.15-9.45C1010.85,328.02,1006.3,323.79,1000.7,323.79Zm.16,14.75a5.20022,5.20022,0,1,1,5.25-5.2A5.2261,5.2261,0,0,1,1000.86,338.54Z" transform="translate(-24.33344 -25.42553)"/><ellipse class="cls-25" cx="976.52654" cy="307.91445" rx="5.25" ry="5.2"/><polygon class="cls-18" points="1669.976 71.957 1658.336 86.777 1658.306 86.817 1645.716 72.077 1645.816 71.957 1658.336 57.447 1658.516 57.237 1669.976 71.957"/><polygon class="cls-18" points="1712.026 71.447 1712.026 71.457 1700.376 86.267 1700.356 86.307 1687.756 71.567 1687.866 71.447 1700.376 56.937 1700.556 56.727 1712.026 71.447"/><polygon class="cls-18" points="1690.366 85.937 1678.726 100.767 1678.696 100.797 1666.106 86.057 1666.206 85.937 1678.726 71.427 1678.906 71.227 1690.366 85.937"/><line class="cls-19" x1="1690.37622" y1="85.95716" x2="1690.36622" y2="85.93716"/><line class="cls-19" x1="1700.37622" y1="86.34716" x2="1700.35622" y2="86.30716"/><line class="cls-19" x1="1669.98622" y1="71.96716" x2="1669.97622" y2="71.95716"/><path class="cls-19" d="M1735.99965,129.50271a10.3038,10.3038,0,1,1-10.29-10.73A10.51384,10.51384,0,0,1,1735.99965,129.50271Z" transform="translate(-24.33344 -25.42553)"/><ellipse class="cls-19" cx="1659.58623" cy="105.26716" rx="10.55003" ry="9.87001"/><path class="cls-19" d="M1710.97969,135.11269a4.95844,4.95844,0,1,1-4.93-5.44A5.21142,5.21142,0,0,1,1710.97969,135.11269Z" transform="translate(-24.33344 -25.42553)"/><polygon class="cls-7" points="539.267 963.924 541.837 977.844 529.757 971.514 517.957 978.384 519.947 964.354 510.087 954.684 523.397 952.344 529.107 939.494 535.337 952.074 548.727 953.804 539.267 963.924"/><ellipse class="cls-7" cx="547.98656" cy="937.38447" rx="7.12" ry="7.98999"/><path class="cls-7" d="M587.2,997.91c0,5.03-3.54,9.1-7.92,9.1-4.38,0-7.93005-4.07-7.93005-9.1,0-5.02,3.55-9.09,7.93005-9.09C583.66,988.82,587.2,992.89,587.2,997.91Z" transform="translate(-24.33344 -25.42553)"/><ellipse class="cls-7" cx="507.53655" cy="939.42444" rx="9.71002" ry="10.37"/><path class="cls-7" d="M536.4,995.79a7.61428,7.61428,0,1,1-7.6-7.99A7.80235,7.80235,0,0,1,536.4,995.79Z" transform="translate(-24.33344 -25.42553)"/><path class="cls-7" d="M559.7,1006.92a4.45167,4.45167,0,1,1-4.45-4.33A4.39257,4.39257,0,0,1,559.7,1006.92Z" transform="translate(-24.33344 -25.42553)"/><path class="cls-26" d="M506.70213,394.78422a17.46,17.46,0,0,1-6.3375,13.36243,21.63459,21.63459,0,0,0-16.05833-7.04435,20.9383,20.9383,0,0,0-4.43974.45389,11.22427,11.22427,0,0,0-.59081-.99853,23.58193,23.58193,0,0,0,3.47306-12.47282,24.28647,24.28647,0,0,0-2.09454-9.91295,19.67308,19.67308,0,0,1,7.12509-1.34349C498.21644,376.8284,506.70213,384.87128,506.70213,394.78422Z" transform="translate(-24.33344 -25.42553)"/><path class="cls-24" d="M450.16655,399.46837a17.66714,17.66714,0,0,0-3.15082,6.89908,20.2545,20.2545,0,0,0-12.94335,10.03993,19.038,19.038,0,0,1-14.51876-18.35519,19.24431,19.24431,0,0,1,19.4419-19.02694,19.73824,19.73824,0,0,1,9.29131,2.28762,24.43567,24.43567,0,0,0,1.87972,18.1555Z" transform="translate(-24.33344 -25.42553)"/><path class="cls-16" d="M469.44739,436.5963A19.93229,19.93229,0,0,1,451.50923,448.234c-11.1352,0-20.158-9.47723-20.158-21.20562a21.85669,21.85669,0,0,1,2.72119-10.621,20.2545,20.2545,0,0,1,12.94335-10.03993,17.34341,17.34341,0,0,0-.37588,3.6311,17.60652,17.60652,0,0,0,17.15035,17.55634A20.27359,20.27359,0,0,0,469.44739,436.5963Z" transform="translate(-24.33344 -25.42553)"/><path class="cls-15" d="M480.65427,378.17189A18.00871,18.00871,0,0,0,468.964,393.02308a18.41694,18.41694,0,0,0-4.61884-.599,17.32967,17.32967,0,0,0-6.44479,1.21639,19.24117,19.24117,0,0,0-9.61354-12.32755c2.36312-8.31526,8.95116-14.27032,16.75655-14.27032C471.79259,367.04255,477.6645,371.56337,480.65427,378.17189Z" transform="translate(-24.33344 -25.42553)"/><path class="cls-18" d="M505.64584,421.78145c0,11.41978-9.54186,20.661-21.33954,20.661a21.51972,21.51972,0,0,1-14.85891-5.84613,21.86838,21.86838,0,0,0,2.184-9.56788,6.00972,6.00972,0,0,0-.05365-.98047,17.61113,17.61113,0,0,0,10.38333-14.19762,19.70818,19.70818,0,0,0,5.81826.87154,19.3456,19.3456,0,0,0,12.58527-4.57522A20.29793,20.29793,0,0,1,505.64584,421.78145Z" transform="translate(-24.33344 -25.42553)"/><path class="cls-19" d="M482.05059,409.99855c0,.61722-.03584,1.23456-.08949,1.85178a17.67359,17.67359,0,0,1-17.61594,15.72274c-.179,0-.37587,0-.555-.01818a17.60652,17.60652,0,0,1-17.15035-17.55634,17.34341,17.34341,0,0,1,.37588-3.6311,17.57477,17.57477,0,0,1,10.88464-12.727,17.32967,17.32967,0,0,1,6.44479-1.21639,18.41694,18.41694,0,0,1,4.61884.599,17.7434,17.7434,0,0,1,10.31175,7.53458,11.22427,11.22427,0,0,1,.59081.99853A17.25556,17.25556,0,0,1,482.05059,409.99855Z" transform="translate(-24.33344 -25.42553)"/><path class="cls-19" d="M434.07237,416.40745a18.31966,18.31966,0,0,0,4.92314.65359,19.33182,19.33182,0,0,0,8.39619-1.88817" transform="translate(-24.33344 -25.42553)"/><path class="cls-19" d="M479.27574,400.55769a.0177.0177,0,0,0-.0179.01815" transform="translate(-24.33344 -25.42553)"/><line class="cls-19" x1="444.63056" y1="367.61578" x2="444.63056" y2="367.59762"/><line class="cls-19" x1="439.45679" y1="402.1294" x2="439.45679" y2="402.11124"/><path class="cls-19" d="M471.57774,426.048v-.03631" transform="translate(-24.33344 -25.42553)"/><rect class="cls-18" x="1557.75987" y="559.22653" width="95.56604" height="24.62519"/><rect class="cls-18" x="1600.09128" y="596.88303" width="8.31988" height="14.73344"/><rect class="cls-19" x="1599.58274" y="511.65957" width="10.10985" height="39.58559"/><ellipse class="cls-18" cx="1566.20176" cy="537.60861" rx="17.00586" ry="15.33868"/><path class="cls-18" d="M1683.21277,562.183c0,8.47325-7.6282,15.3388-17.02626,15.3388-9.37757,0-17.00577-6.86555-17.00577-15.3388,0-8.45421,7.6282-15.31975,17.00577-15.31975C1675.58457,546.86327,1683.21277,553.72881,1683.21277,562.183Z" transform="translate(-24.33344 -25.42553)"/><line class="cls-19" x1="322.06258" y1="832.26705" x2="321.60058" y2="832.74569"/><line class="cls-19" x1="430.19005" y1="832.33232" x2="430.14805" y2="832.26705"/><polyline class="cls-19" points="430.148 832.267 378.069 832.267 322.063 832.267"/><polyline class="cls-19" points="378.069 774.221 378.069 832.267 378.069 891.574"/><ellipse class="cls-19" cx="360.33431" cy="814.45473" rx="9.07008" ry="10.04489"/><ellipse class="cls-19" cx="393.1296" cy="814.73247" rx="9.07008" ry="10.04489"/><ellipse class="cls-19" cx="360.95984" cy="850.9311" rx="9.07008" ry="10.04489"/><ellipse class="cls-19" cx="393.39768" cy="852.59753" rx="9.07008" ry="10.04489"/><path class="cls-19" d="M334.04819,898.15913c0,7.11418,6.1529,12.85785,13.75478,12.85785a13.913,13.913,0,0,1-6.97192,1.871c-8.37886,0-15.18274-7.50579-15.18274-16.77395,0-9.24639,6.80388-16.75231,15.18274-16.75231a14.72542,14.72542,0,0,1,12.28491,6.91846,14.72562,14.72562,0,0,0-5.313-.97906C340.20109,885.30113,334.04819,891.0448,334.04819,898.15913Z" transform="translate(-24.33344 -25.42553)"/><path class="cls-19" d="M355.99291,818.13973a11.47844,11.47844,0,0,0-9.3449-5.24318c-6.86694,0-12.43179,6.83148-12.43179,15.27276a18.07978,18.07978,0,0,0,1.554,7.39717c-5.85887-2.30616-10.07983-8.50662-10.07983-15.77325,0-9.26817,6.80388-16.75231,15.18274-16.75231C348.769,803.04092,355.25784,809.65489,355.99291,818.13973Z" transform="translate(-24.33344 -25.42553)"/><path class="cls-19" d="M467.85837,818.96648c0,7.63645-4.641,14.07633-10.96191,16.07787a16.22616,16.22616,0,0,0,4.93488-11.79183c0-8.68084-6.53088-15.72983-14.5738-15.72983a13.76125,13.76125,0,0,0-7.16084,2.02332,14.85029,14.85029,0,0,1,12.5788-7.35348C461.05436,802.19253,467.85837,809.69831,467.85837,818.96648Z" transform="translate(-24.33344 -25.42553)"/><path class="cls-19" d="M468.40426,895.33084c0,9.268-6.80389,16.75218-15.20377,16.75218a14.19019,14.19019,0,0,1-8.06381-2.54544,11.48794,11.48794,0,0,0,2.12086.19586c7.056,0,12.78887-6.13526,12.78887-13.70651,0-7.57112-5.73287-13.70639-12.78887-13.70639a11.63153,11.63153,0,0,0-4.51486.89208,14.35193,14.35193,0,0,1,10.45781-4.63408C461.60037,878.57854,468.40426,886.08446,468.40426,895.33084Z" transform="translate(-24.33344 -25.42553)"/><path class="cls-18" d="M356.035,896.114a17.03241,17.03241,0,0,1-8.232,14.90294c-7.60188,0-13.75478-5.74367-13.75478-12.85785,0-7.11433,6.1529-12.858,13.75478-12.858a14.72562,14.72562,0,0,1,5.313.97906A17.6349,17.6349,0,0,1,356.035,896.114Z" transform="translate(-24.33344 -25.42553)"/><path class="cls-19" d="M361.55775,898.15913c0,7.11418-6.1529,12.85785-13.75478,12.85785a17.03241,17.03241,0,0,0,8.232-14.90294,17.6349,17.6349,0,0,0-2.919-9.83385A12.913,12.913,0,0,1,361.55775,898.15913Z" transform="translate(-24.33344 -25.42553)"/><path class="cls-18" d="M460.04641,896.02693c0,7.57125-5.73287,13.70651-12.78887,13.70651a11.48794,11.48794,0,0,1-2.12086-.19586,17.18621,17.18621,0,0,1-7.11894-14.20674,17.47558,17.47558,0,0,1,4.72494-12.11822,11.63153,11.63153,0,0,1,4.51486-.89208C454.31354,882.32054,460.04641,888.45581,460.04641,896.02693Z" transform="translate(-24.33344 -25.42553)"/><path class="cls-19" d="M445.13668,909.53758c-6.04793-1.066-10.64687-6.72259-10.64687-13.51065a13.67584,13.67584,0,0,1,8.25287-12.81431,17.47558,17.47558,0,0,0-4.72494,12.11822A17.18621,17.18621,0,0,0,445.13668,909.53758Z" transform="translate(-24.33344 -25.42553)"/><path class="cls-18" d="M356.07686,819.79323c0,9.24638-6.80389,16.7523-15.20377,16.7523a13.85745,13.85745,0,0,1-5.10291-.97905,18.07978,18.07978,0,0,1-1.554-7.39717c0-8.44128,5.56485-15.27276,12.43179-15.27276a11.47844,11.47844,0,0,1,9.3449,5.24318A14.298,14.298,0,0,1,356.07686,819.79323Z" transform="translate(-24.33344 -25.42553)"/><path class="cls-19" d="M359.05878,828.16931c0,8.44142-5.54382,15.2729-12.41077,15.2729-4.68289,0-8.75684-3.17632-10.87783-7.87573a13.85745,13.85745,0,0,0,5.10291.97905c8.39988,0,15.20377-7.50592,15.20377-16.7523a14.298,14.298,0,0,0-.084-1.6535A17.32023,17.32023,0,0,1,359.05878,828.16931Z" transform="translate(-24.33344 -25.42553)"/><path class="cls-18" d="M461.83134,823.25252a16.22616,16.22616,0,0,1-4.93488,11.79183,13.01582,13.01582,0,0,1-4.221.67444c-8.39988,0-15.20377-7.50592-15.20377-16.75231a17.8453,17.8453,0,0,1,2.625-9.42047,13.76125,13.76125,0,0,1,7.16084-2.02332C455.30046,807.52269,461.83134,814.57168,461.83134,823.25252Z" transform="translate(-24.33344 -25.42553)"/><path class="cls-19" d="M456.89646,835.04435a13.79247,13.79247,0,0,1-9.63892,3.95964c-8.0428,0-14.55278-7.049-14.55278-15.75147A15.99536,15.99536,0,0,1,440.0967,809.546a17.8453,17.8453,0,0,0-2.625,9.42047c0,9.24639,6.80389,16.75231,15.20377,16.75231A13.01582,13.01582,0,0,0,456.89646,835.04435Z" transform="translate(-24.33344 -25.42553)"/></svg>